<?xml version="1.0" encoding="iso-8859-1"?>
<!-- Generator: Adobe Illustrator 18.1.1, SVG Export Plug-In . SVG Version: 6.00 Build 0)  -->
<svg version="1.1" id="Capa_1" xmlns="http://www.w3.org/2000/svg" xmlns:xlink="http://www.w3.org/1999/xlink" x="0px" y="0px"
	 viewBox="0 0 396.991 396.991" style="enable-background:new 0 0 396.991 396.991;" xml:space="preserve">
<g>
	<g>
		<path style="fill:#010002;" d="M168.371,134.121c-0.171-2.357-0.358-4.715-0.358-7.113c0-44.293,29.084-81.887,69.142-94.779
			C226.352,13.022,205.803,0,182.239,0c-21.817,0-41.773,11.096-53.397,29.686l-1.162,1.861l-2.203,0.049
			c-49.381,1.016-89.553,41.992-89.553,91.349c0,3.788,0.301,7.503,0.756,11.177H168.371z"/>
		<path style="fill:#010002;" d="M176.142,127.009c0,2.398,0.179,4.755,0.358,7.113h41.561h4.113h4.105h132.398
			c0.179-2.357,0.358-4.715,0.358-7.113c0-50.422-41.025-91.446-91.446-91.446c-6.519,0-12.868,0.715-19.005,2.016
			c-1.333,0.285-2.626,0.675-3.934,1.016c-1.325,0.341-2.666,0.626-3.967,1.024C203.357,51.129,176.142,85.943,176.142,127.009z"/>
		<path style="fill:#010002;" d="M149.724,312.178v4.194v4.227v39.391h-32.303c-10.218,0-18.501,8.283-18.501,18.501
			s8.283,18.501,18.501,18.501h162.157c10.218,0,18.501-8.283,18.501-18.501s-8.283-18.501-18.501-18.501h-32.311v-39.391v-4.227
			v-4.194c73.913-21.175,128.025-89.211,128.025-169.928h-9.421h-4.105h-4.113H225.036h-4.105h-4.202h-39.204h-4.113h-4.105H38.021
			h-4.211h-4.105h-8.007C21.699,222.967,75.811,291.003,149.724,312.178z"/>
	</g>
</g>
<g>
</g>
<g>
</g>
<g>
</g>
<g>
</g>
<g>
</g>
<g>
</g>
<g>
</g>
<g>
</g>
<g>
</g>
<g>
</g>
<g>
</g>
<g>
</g>
<g>
</g>
<g>
</g>
<g>
</g>
</svg>
